<svg id="Capa_1" xmlns="http://www.w3.org/2000/svg" viewBox="0 0 100 100"><style>.st0{fill:#fff}</style><g id="XMLID_150_"><path id="XMLID_164_" class="st0" d="M87.7 34.9c0-.2 0-.4-.1-.5l-4.1-10c-2.5-6.2-8.3-10.2-15-10.2H31.4c-6.7 0-12.6 4-15 10.2l-4.1 10c-.1.2-.1.4-.1.6v11.5c0 .8.7 1.5 1.5 1.5h7.9c1.2 0 1.9 1.2 1.4 2.3l-6 10.9c-.1.2-.2.5-.2.7v22.5c0 .8.7 1.5 1.5 1.5h63.1c.8 0 1.5-.7 1.5-1.5V61.9c0-.2-.1-.5-.2-.8l-6-10.8c-.5-1 .2-2.3 1.4-2.3H86c.8 0 1.5-.7 1.5-1.5l.2-11.6zM76.9 61.5h-6.2c-.8 0-1.5.7-1.5 1.5s.7 1.5 1.5 1.5h7.7c.8 0 1.5.7 1.5 1.5v15.2c0 .8-.7 1.5-1.5 1.5h-57c-.8 0-1.5-.7-1.5-1.5V66.1c0-.8.7-1.5 1.5-1.5h7.7c.8 0 1.5-.7 1.5-1.5s-.7-1.5-1.5-1.5h-6.2c-1.2 0-1.9-1.2-1.4-2.3l5.7-10.4c.3-.5.8-.8 1.4-.8h5.9c.8 0 1.5-.7 1.5-1.5V35.9c0-1.6.8-3.5 1.8-4.9.9-1.2 2.8-.5 2.8.9v4.2c0 .8.7 1.5 1.5 1.5h15.4c.8 0 1.5-.7 1.5-1.5v-4.2c0-1.5 1.8-2.1 2.8-.9 1.2 1.4 1.8 3.3 1.8 5v10.5c0 .8.7 1.5 1.5 1.5H71c.5 0 1.1.3 1.4.8l5.7 10.4c.8 1 0 2.3-1.2 2.3zM45.4 28.7h9.2c.8 0 1.5.7 1.5 1.5V33c0 .8-.7 1.5-1.5 1.5h-9.2c-.8 0-1.5-.7-1.5-1.5v-2.7c-.1-.9.6-1.6 1.5-1.6zm37.7 16.2H68.5c-.8 0-1.5-.7-1.5-1.5v-7.5c0-2.5-1-5.2-2.7-7.2h.5c2.4 0 4.4 1.9 4.9 4.4.2.7.8 1.2 1.5 1.2 1 0 1.7-.8 1.5-1.8-.8-3.9-4.1-6.9-8-6.9H35.3c-3.8 0-7.2 2.9-7.9 6.9-.2.9.5 1.8 1.5 1.8.8 0 1.4-.5 1.5-1.2.5-2.5 2.5-4.4 4.9-4.4h.5c-1.7 2-2.7 4.6-2.7 7.2v7.5c0 .8-.7 1.5-1.5 1.5H16.9c-.8 0-1.5-.7-1.5-1.5v-7.9c0-.2 0-.4.1-.5l3.8-9.5c2-5.1 6.8-8.3 12.2-8.3h37.1c5.4 0 10.2 3.2 12.2 8.2l3.8 9.5c.1.2.1.4.1.5v7.9c-.1.9-.7 1.6-1.6 1.6z"/><path id="XMLID_163_" class="st0" d="M20.7 36.8h8.5c.8 0 1.5.7 1.5 1.5s-.7 1.5-1.5 1.5h-8.5c-.8 0-1.5-.7-1.5-1.5s.7-1.5 1.5-1.5z"/><path id="XMLID_162_" class="st0" d="M40 43h20c.8 0 1.5.7 1.5 1.5S60.8 46 60 46H40c-.8 0-1.5-.7-1.5-1.5S39.1 43 40 43z"/><path id="XMLID_161_" class="st0" d="M70.8 36.8h8.5c.8 0 1.5.7 1.5 1.5s-.7 1.5-1.5 1.5h-8.5c-.8 0-1.5-.7-1.5-1.5-.1-.8.6-1.5 1.5-1.5z"/><path id="XMLID_151_" class="st0" d="M37.3 68.2H41c.8 0 1.5.7 1.5 1.5v1.6c0 .8-.7 1.5-1.5 1.5h-3.8c-.9 0-1.6-.8-1.5-1.7l.2-1.6c-.1-.7.6-1.3 1.4-1.3zM53.7 62v1.2c0 .8-.7 1.5-1.5 1.5h-4.5c-.8 0-1.5-.7-1.5-1.5V62c0-.8.7-1.5 1.5-1.5h4.5c.8 0 1.5.7 1.5 1.5zm-7.5-6.5v-1.1c0-.8.7-1.5 1.5-1.5H52c.8 0 1.5.7 1.5 1.5v1.1c0 .8-.7 1.5-1.5 1.5h-4.3c-.8.1-1.5-.6-1.5-1.5zm12.5 5h3.2c.8 0 1.5.6 1.5 1.4l.1 1.2c.1.9-.6 1.7-1.5 1.7h-3.3c-.8 0-1.5-.7-1.5-1.5V62c0-.8.7-1.5 1.5-1.5zm-4.9 9.2v1.6c0 .8-.7 1.5-1.5 1.5h-4.9c-.8 0-1.5-.7-1.5-1.5v-1.6c0-.8.7-1.5 1.5-1.5h4.9c.9 0 1.5.7 1.5 1.5zm-12.7-5h-3.2c-.9 0-1.6-.8-1.5-1.7l.1-1.2c.1-.8.8-1.4 1.5-1.4h3.1c.8 0 1.5.7 1.5 1.5v1.2c0 .9-.7 1.6-1.5 1.6zm16.3 6.6v-1.6c0-.8.7-1.5 1.5-1.5h3.8c.8 0 1.5.6 1.5 1.4l.2 1.6c.1.9-.6 1.7-1.5 1.7H59c-.9 0-1.6-.7-1.6-1.6zm4-14.2h-2.8c-.8 0-1.5-.7-1.5-1.5v-1.1c0-.8.7-1.5 1.5-1.5h2.7c.8 0 1.5.6 1.5 1.4l.1 1.1c.1.8-.6 1.6-1.5 1.6zm-18.6-2.6v1.1c0 .8-.7 1.5-1.5 1.5h-2.6c-.9 0-1.6-.8-1.5-1.7l.1-1.1c.1-.8.8-1.4 1.5-1.4h2.5c.8 0 1.5.7 1.5 1.6z"/></g></svg>