<svg xmlns="http://www.w3.org/2000/svg" xmlns:xlink="http://www.w3.org/1999/xlink" version="1.1" x="0px" y="0px" viewBox="-247 370.9 100 125" style="enable-background:new -247 370.9 100 100;" xml:space="preserve"><path d="M-148,400.9c0-0.3,0-0.5-0.1-0.7l-5.3-13c-3.2-8.1-10.8-13.3-19.5-13.3h-48.2c-8.7,0-16.3,5.2-19.5,13.2l-5.3,13  c-0.1,0.3-0.1,0.5-0.1,0.8v15c0,1.1,0.9,2,2,2h10.2c1.5,0,2.5,1.6,1.8,3l-7.8,14.1c-0.1,0.2-0.2,0.6-0.2,0.9v29.2c0,1.1,0.9,2,2,2  h82c1.1,0,2-0.9,2-2v-29.2c0-0.3-0.1-0.7-0.2-1l-7.8-14c-0.7-1.3,0.2-3,1.8-3h10.2c1.1,0,2-0.9,2-2V400.9z M-162,435.4h-8  c-1.1,0-2,0.9-2,2l0,0c0,1.1,0.9,2,2,2h10c1.1,0,2,0.9,2,2v19.7c0,1.1-0.9,2-2,2h-74c-1.1,0-2-0.9-2-2v-19.7c0-1.1,0.9-2,2-2h10  c1.1,0,2-0.9,2-2l0,0c0-1.1-0.9-2-2-2h-8c-1.5,0-2.5-1.6-1.8-3l7.4-13.5c0.4-0.6,1-1,1.8-1h7.6c1.1,0,2-0.9,2-2v-13.7  c0-2.1,1-4.6,2.4-6.4c1.2-1.5,3.6-0.7,3.6,1.2v5.4c0,1.1,0.9,2,2,2h20c1.1,0,2-0.9,2-2v-5.5c0-1.9,2.4-2.7,3.6-1.2  c1.5,1.8,2.4,4.3,2.4,6.5v13.7c0,1.1,0.9,2,2,2h7.6c0.7,0,1.4,0.4,1.8,1l7.4,13.5C-159.5,433.8-160.5,435.4-162,435.4z M-203,392.9  h12c1.1,0,2,0.9,2,2v3.5c0,1.1-0.9,2-2,2h-12c-1.1,0-2-0.9-2-2v-3.5C-205,393.8-204.1,392.9-203,392.9z M-154,413.9h-19  c-1.1,0-2-0.9-2-2v-9.7c0-3.2-1.3-6.7-3.5-9.3h0.7c3.1,0,5.7,2.5,6.3,5.7c0.2,0.9,1,1.6,2,1.6l0,0c1.3,0,2.2-1.1,2-2.4  c-1-5.1-5.3-8.9-10.4-8.9h-8.4h-21.4h-8.4c-5,0-9.3,3.8-10.3,8.9c-0.2,1.2,0.7,2.4,2,2.4l0,0c1,0,1.8-0.7,2-1.6  c0.7-3.2,3.2-5.7,6.3-5.7h0.7c-2.2,2.6-3.5,6-3.5,9.3v9.7c0,1.1-0.9,2-2,2H-240c-1.1,0-2-0.9-2-2v-10.2c0-0.3,0-0.5,0.1-0.7l5-12.3  c2.6-6.6,8.8-10.8,15.8-10.8h48.2c7,0,13.2,4.2,15.8,10.7l5,12.3c0.1,0.2,0.1,0.5,0.1,0.7v10.3C-152,413-152.9,413.9-154,413.9z"/><path d="M-235,403.4h11c1.1,0,2,0.9,2,2l0,0c0,1.1-0.9,2-2,2h-11c-1.1,0-2-0.9-2-2l0,0C-237,404.3-236.1,403.4-235,403.4z"/><path d="M-210,411.4h26c1.1,0,2,0.9,2,2l0,0c0,1.1-0.9,2-2,2h-26c-1.1,0-2-0.9-2-2l0,0C-212,412.3-211.1,411.4-210,411.4z"/><path d="M-170,403.4h11c1.1,0,2,0.9,2,2l0,0c0,1.1-0.9,2-2,2h-11c-1.1,0-2-0.9-2-2l0,0C-172,404.3-171.1,403.4-170,403.4z"/><path d="M-213.5,444.1h4.8c1.1,0,2,0.9,2,2v2.1c0,1.1-0.9,2-2,2h-4.9c-1.2,0-2.1-1-2-2.2l0.2-2.1  C-215.4,444.9-214.5,444.1-213.5,444.1z M-192.2,436.1v1.5c0,1.1-0.9,2-2,2h-5.9c-1.1,0-2-0.9-2-2v-1.5c0-1.1,0.9-2,2-2h5.9  C-193.1,434.1-192.2,435-192.2,436.1z M-201.9,427.7v-1.4c0-1.1,0.9-2,2-2h5.6c1.1,0,2,0.9,2,2v1.4c0,1.1-0.9,2-2,2h-5.6  C-201,429.7-201.9,428.8-201.9,427.7z M-185.7,434.1h4.2c1,0,1.9,0.8,2,1.8l0.1,1.5c0.1,1.2-0.8,2.2-2,2.2h-4.3c-1.1,0-2-0.9-2-2  v-1.5C-187.7,435-186.8,434.1-185.7,434.1z M-192,446.1v2.1c0,1.1-0.9,2-2,2h-6.3c-1.1,0-2-0.9-2-2v-2.1c0-1.1,0.9-2,2-2h6.3  C-192.9,444.1-192,445-192,446.1z M-208.6,439.6h-4.1c-1.2,0-2.1-1-2-2.2l0.1-1.5c0.1-1,1-1.8,2-1.8h4c1.1,0,2,0.9,2,2v1.5  C-206.6,438.7-207.5,439.6-208.6,439.6z M-187.4,448.2v-2.1c0-1.1,0.9-2,2-2h5c1,0,1.9,0.8,2,1.8l0.2,2.1c0.1,1.2-0.8,2.2-2,2.2  h-5.1C-186.5,450.2-187.4,449.3-187.4,448.2z M-182.2,429.7h-3.6c-1.1,0-2-0.9-2-2v-1.4c0-1.1,0.9-2,2-2h3.5c1,0,1.9,0.8,2,1.8  l0.1,1.4C-180.1,428.7-181,429.7-182.2,429.7z M-206.3,426.3v1.4c0,1.1-0.9,2-2,2h-3.4c-1.2,0-2.1-1-2-2.2l0.1-1.4  c0.1-1,1-1.8,2-1.8h3.3C-207.2,424.3-206.3,425.2-206.3,426.3z"/><text x="-247" y="485.9" fill="#000000" font-size="5px" font-weight="bold" font-family="'Helvetica Neue', Helvetica, Arial-Unicode, Arial, Sans-serif">Created by Icons Producer</text><text x="-247" y="490.9" fill="#000000" font-size="5px" font-weight="bold" font-family="'Helvetica Neue', Helvetica, Arial-Unicode, Arial, Sans-serif">from the Noun Project</text></svg>