<?xml version="1.0" encoding="utf-8"?>
<!-- Generator: Adobe Illustrator 19.0.0, SVG Export Plug-In . SVG Version: 6.00 Build 0)  -->
<svg version="1.1" id="Capa_1" xmlns="http://www.w3.org/2000/svg" xmlns:xlink="http://www.w3.org/1999/xlink" x="0px" y="0px"
	 viewBox="0 0 100 100" style="enable-background:new 0 0 100 100;" xml:space="preserve">
<style type="text/css">
	.st0{fill:#FFFFFF;}
</style>
<g id="XMLID_150_">
	<path id="XMLID_164_" class="st0" d="M87.7,34.9c0-0.2,0-0.4-0.1-0.5l-4.1-10c-2.5-6.2-8.3-10.2-15-10.2H31.4
		c-6.7,0-12.6,4-15,10.2l-4.1,10c-0.1,0.2-0.1,0.4-0.1,0.6v11.5c0,0.8,0.7,1.5,1.5,1.5h7.9c1.2,0,1.9,1.2,1.4,2.3l-6,10.9
		c-0.1,0.2-0.2,0.5-0.2,0.7v22.5c0,0.8,0.7,1.5,1.5,1.5h63.1c0.8,0,1.5-0.7,1.5-1.5V61.9c0-0.2-0.1-0.5-0.2-0.8l-6-10.8
		c-0.5-1,0.2-2.3,1.4-2.3h7.9c0.8,0,1.5-0.7,1.5-1.5L87.7,34.9L87.7,34.9z M76.9,61.5h-6.2c-0.8,0-1.5,0.7-1.5,1.5l0,0
		c0,0.8,0.7,1.5,1.5,1.5h7.7c0.8,0,1.5,0.7,1.5,1.5v15.2c0,0.8-0.7,1.5-1.5,1.5h-57c-0.8,0-1.5-0.7-1.5-1.5V66.1
		c0-0.8,0.7-1.5,1.5-1.5h7.7c0.8,0,1.5-0.7,1.5-1.5l0,0c0-0.8-0.7-1.5-1.5-1.5h-6.2c-1.2,0-1.9-1.2-1.4-2.3l5.7-10.4
		c0.3-0.5,0.8-0.8,1.4-0.8h5.9c0.8,0,1.5-0.7,1.5-1.5V35.9c0-1.6,0.8-3.5,1.8-4.9c0.9-1.2,2.8-0.5,2.8,0.9v4.2
		c0,0.8,0.7,1.5,1.5,1.5h15.4c0.8,0,1.5-0.7,1.5-1.5v-4.2c0-1.5,1.8-2.1,2.8-0.9c1.2,1.4,1.8,3.3,1.8,5v10.5c0,0.8,0.7,1.5,1.5,1.5
		h5.9c0.5,0,1.1,0.3,1.4,0.8l5.7,10.4C78.9,60.2,78.1,61.5,76.9,61.5z M45.4,28.7h9.2c0.8,0,1.5,0.7,1.5,1.5V33
		c0,0.8-0.7,1.5-1.5,1.5h-9.2c-0.8,0-1.5-0.7-1.5-1.5v-2.7C43.8,29.4,44.5,28.7,45.4,28.7z M83.1,44.9H68.5c-0.8,0-1.5-0.7-1.5-1.5
		v-7.5c0-2.5-1-5.2-2.7-7.2h0.5c2.4,0,4.4,1.9,4.9,4.4c0.2,0.7,0.8,1.2,1.5,1.2l0,0c1,0,1.7-0.8,1.5-1.8c-0.8-3.9-4.1-6.9-8-6.9
		h-6.5H41.8h-6.5c-3.8,0-7.2,2.9-7.9,6.9c-0.2,0.9,0.5,1.8,1.5,1.8l0,0c0.8,0,1.4-0.5,1.5-1.2c0.5-2.5,2.5-4.4,4.9-4.4h0.5
		c-1.7,2-2.7,4.6-2.7,7.2v7.5c0,0.8-0.7,1.5-1.5,1.5H16.9c-0.8,0-1.5-0.7-1.5-1.5v-7.9c0-0.2,0-0.4,0.1-0.5l3.8-9.5
		c2-5.1,6.8-8.3,12.2-8.3h37.1c5.4,0,10.2,3.2,12.2,8.2l3.8,9.5c0.1,0.2,0.1,0.4,0.1,0.5v7.9C84.6,44.2,84,44.9,83.1,44.9z"/>
	<path id="XMLID_163_" class="st0" d="M20.7,36.8h8.5c0.8,0,1.5,0.7,1.5,1.5l0,0c0,0.8-0.7,1.5-1.5,1.5h-8.5c-0.8,0-1.5-0.7-1.5-1.5
		l0,0C19.2,37.5,19.9,36.8,20.7,36.8z"/>
	<path id="XMLID_162_" class="st0" d="M40,43h20c0.8,0,1.5,0.7,1.5,1.5l0,0c0,0.8-0.7,1.5-1.5,1.5H40c-0.8,0-1.5-0.7-1.5-1.5l0,0
		C38.5,43.7,39.1,43,40,43z"/>
	<path id="XMLID_161_" class="st0" d="M70.8,36.8h8.5c0.8,0,1.5,0.7,1.5,1.5l0,0c0,0.8-0.7,1.5-1.5,1.5h-8.5c-0.8,0-1.5-0.7-1.5-1.5
		l0,0C69.2,37.5,69.9,36.8,70.8,36.8z"/>
	<path id="XMLID_151_" class="st0" d="M37.3,68.2H41c0.8,0,1.5,0.7,1.5,1.5v1.6c0,0.8-0.7,1.5-1.5,1.5h-3.8c-0.9,0-1.6-0.8-1.5-1.7
		l0.2-1.6C35.8,68.8,36.5,68.2,37.3,68.2z M53.7,62v1.2c0,0.8-0.7,1.5-1.5,1.5h-4.5c-0.8,0-1.5-0.7-1.5-1.5V62
		c0-0.8,0.7-1.5,1.5-1.5h4.5C53,60.5,53.7,61.2,53.7,62z M46.2,55.5v-1.1c0-0.8,0.7-1.5,1.5-1.5h4.3c0.8,0,1.5,0.7,1.5,1.5v1.1
		c0,0.8-0.7,1.5-1.5,1.5h-4.3C46.9,57.1,46.2,56.4,46.2,55.5z M58.7,60.5h3.2c0.8,0,1.5,0.6,1.5,1.4l0.1,1.2
		c0.1,0.9-0.6,1.7-1.5,1.7h-3.3c-0.8,0-1.5-0.7-1.5-1.5V62C57.2,61.2,57.9,60.5,58.7,60.5z M53.8,69.7v1.6c0,0.8-0.7,1.5-1.5,1.5
		h-4.9c-0.8,0-1.5-0.7-1.5-1.5v-1.6c0-0.8,0.7-1.5,1.5-1.5h4.9C53.2,68.2,53.8,68.9,53.8,69.7z M41.1,64.7h-3.2
		c-0.9,0-1.6-0.8-1.5-1.7l0.1-1.2c0.1-0.8,0.8-1.4,1.5-1.4h3.1c0.8,0,1.5,0.7,1.5,1.5v1.2C42.6,64,41.9,64.7,41.1,64.7z M57.4,71.3
		v-1.6c0-0.8,0.7-1.5,1.5-1.5h3.8c0.8,0,1.5,0.6,1.5,1.4l0.2,1.6c0.1,0.9-0.6,1.7-1.5,1.7H59C58.1,72.9,57.4,72.2,57.4,71.3z
		 M61.4,57.1h-2.8c-0.8,0-1.5-0.7-1.5-1.5v-1.1c0-0.8,0.7-1.5,1.5-1.5h2.7c0.8,0,1.5,0.6,1.5,1.4l0.1,1.1
		C63,56.3,62.3,57.1,61.4,57.1z M42.8,54.5v1.1c0,0.8-0.7,1.5-1.5,1.5h-2.6c-0.9,0-1.6-0.8-1.5-1.7l0.1-1.1c0.1-0.8,0.8-1.4,1.5-1.4
		h2.5C42.1,52.9,42.8,53.6,42.8,54.5z"/>
</g>
</svg>
